<?xml version="1.0" encoding="UTF-8"?>
<svg version="1.1" xmlns="http://www.w3.org/2000/svg" width="500" height="500">
<path d="M0 0 C1.06098372 0.00092179 2.12196745 0.00184359 3.2151022 0.00279331 C4.42558003 0.00141582 5.63605787 0.00003832 6.88321686 -0.00138092 C8.24225353 0.00216634 9.60128998 0.00580424 10.96032619 0.00952244 C12.40222038 0.00982855 13.84411472 0.00969566 15.28600883 0.00915718 C19.16035803 0.00893068 23.03467658 0.01474212 26.90901852 0.02176762 C30.5396068 0.02744689 34.17018749 0.02772988 37.8007803 0.02844334 C48.43070789 0.03369843 59.06062973 0.04765948 69.6905508 0.06054783 C93.4299258 0.08117283 117.1693008 0.10179783 141.6280508 0.12304783 C141.6280508 67.44304783 141.6280508 134.76304783 141.6280508 204.12304783 C94.1080508 204.12304783 46.5880508 204.12304783 -2.3719492 204.12304783 C-2.5575742 182.36367283 -2.7431992 160.60429783 -2.9344492 138.18554783 C-2.99576023 131.30332371 -3.05707127 124.42109959 -3.12024021 117.33032322 C-3.18823338 108.95593357 -3.18823338 108.95593357 -3.21873569 105.04124546 C-3.24109559 102.29459044 -3.26508444 99.54799364 -3.29136753 96.8013773 C-3.33096326 92.6522044 -3.36262913 88.50300636 -3.39367771 84.35376072 C-3.40664418 83.12073499 -3.41961065 81.88770926 -3.43297005 80.61731911 C-3.43998908 79.50759963 -3.44700811 78.39788015 -3.45423985 77.25453281 C-3.46253598 76.28204122 -3.47083212 75.30954962 -3.47937965 74.30758858 C-3.3719492 72.12304783 -3.3719492 72.12304783 -2.3719492 71.12304783 C-0.0619492 71.12304783 2.2480508 71.12304783 4.6280508 71.12304783 C4.6280508 112.37304783 4.6280508 153.62304783 4.6280508 196.12304783 C47.1980508 196.12304783 89.7680508 196.12304783 133.6280508 196.12304783 C133.6280508 133.75304783 133.6280508 71.38304783 133.6280508 7.12304783 C91.0580508 7.12304783 48.4880508 7.12304783 4.6280508 7.12304783 C4.6280508 9.10304783 4.6280508 11.08304783 4.6280508 13.12304783 C2.3180508 14.44304783 0.0080508 15.76304783 -2.3719492 17.12304783 C-3.50325803 13.72912132 -3.5048686 11.06969911 -3.4969492 7.49804783 C-3.50081638 5.74621189 -3.50081638 5.74621189 -3.5047617 3.95898533 C-3.32743857 0.17261503 -3.32743857 0.17261503 0 0 Z " fill="#24558F" transform="translate(190.37194919586182,149.87695217132568)"/>
<path d="M0 0 C4.875 2.625 4.875 2.625 6 6 C3.36 8.97 0.72 11.94 -2 15 C0.31 15.33 2.62 15.66 5 16 C5 18.31 5 20.62 5 23 C4.01 22.979375 3.02 22.95875 2 22.9375 C-5.63456525 22.89148369 -5.63456525 22.89148369 -12.6015625 25.63671875 C-14.60247546 27.66467108 -16.3005276 29.71463643 -18 32 C-19.65 33.98 -21.3 35.96 -23 38 C-9.14 38.495 -9.14 38.495 5 39 C5 41.31 5 43.62 5 46 C3.94611084 45.98839844 2.89222168 45.97679687 1.80639648 45.96484375 C-2.128436 45.93215021 -6.06157899 45.95225955 -9.99633789 45.98779297 C-11.69457213 45.99587134 -13.39293666 45.98989717 -15.09106445 45.96923828 C-24.73038313 45.53318138 -24.73038313 45.53318138 -33.53857422 48.63671875 C-35.32616177 50.67192279 -36.61513687 52.67652658 -38 55 C-39.65 56.98 -41.3 58.96 -43 61 C-27.16 61.33 -11.32 61.66 5 62 C5 64.31 5 66.62 5 69 C-0.74456091 70.30566488 -6.23633691 69.88546582 -12.06640625 69.60546875 C-15.41100813 69.49730736 -18.75584027 69.40173666 -22.10083008 69.30639648 C-24.39701278 69.22753049 -26.69251732 69.12521812 -28.98657227 68.9987793 C-32.32701698 68.82101674 -35.65965265 68.73683266 -39.00390625 68.66796875 C-40.01167618 68.5925737 -41.01944611 68.51717865 -42.05775452 68.4394989 C-45.57963597 68.29579258 -45.57963597 68.29579258 -51 70 C-55.29 74.62 -59.58 79.24 -64 84 C-29.845 84.495 -29.845 84.495 5 85 C5 87.64 5 90.28 5 93 C4.1135228 92.99555878 3.22704559 92.99111755 2.31370544 92.98654175 C-6.05758833 92.94639809 -14.42884957 92.91598159 -22.80021763 92.89637566 C-27.1035887 92.88595708 -31.40687994 92.87183317 -35.71020508 92.84912109 C-39.86639626 92.82732387 -44.02251086 92.81541689 -48.17875481 92.81024551 C-49.76110984 92.80656208 -51.34346089 92.79936933 -52.92578316 92.78853989 C-55.14926195 92.77393333 -57.37242789 92.77202585 -59.59594727 92.77294922 C-60.85947525 92.768508 -62.12300323 92.76406677 -63.42481995 92.75949097 C-68.76517509 93.11874662 -72.74075892 93.76519195 -76.6171875 97.56640625 C-77.36226562 98.55511719 -78.10734375 99.54382813 -78.875 100.5625 C-79.63554687 101.55378906 -80.39609375 102.54507813 -81.1796875 103.56640625 C-81.78039062 104.36949219 -82.38109375 105.17257812 -83 106 C-83.33 106.33 -83.66 106.66 -84 107 C-83.28812027 107.01030746 -82.57624054 107.02061493 -81.8427887 107.03123474 C-75.14717174 107.12904898 -68.45164482 107.23154004 -61.75618076 107.33933926 C-58.3136426 107.3945988 -54.871096 107.44802347 -51.4284668 107.49731445 C-47.47435474 107.55400801 -43.52039056 107.61857495 -39.56640625 107.68359375 C-38.32476212 107.70030624 -37.08311798 107.71701874 -35.80384827 107.73423767 C-34.66274094 107.75418289 -33.52163361 107.77412811 -32.34594727 107.79467773 C-30.83037987 107.81799416 -30.83037987 107.81799416 -29.28419495 107.84178162 C-27 108 -27 108 -26 109 C-25.95907063 111.33297433 -25.95758277 113.66705225 -26 116 C-26.8193956 115.99032196 -27.6387912 115.98064392 -28.48301697 115.97067261 C-36.23615796 115.8880342 -43.98733186 115.85386734 -51.74083614 115.87302971 C-55.72645731 115.88120012 -59.71023995 115.87116744 -63.69555664 115.81835938 C-67.54787121 115.76800293 -71.39743136 115.76699791 -75.24991035 115.79904556 C-76.71343522 115.80277349 -78.17711716 115.78923885 -79.64030266 115.75750351 C-88.33807061 115.5343782 -88.33807061 115.5343782 -95.96316528 119.30621338 C-98.19730989 121.77262203 -100.16256158 124.2288738 -102 127 C-105.36748512 125.48052501 -106.60840337 124.47899158 -108 121 C-107.04287109 119.96939453 -107.04287109 119.96939453 -106.06640625 118.91796875 C-105.24011719 118.01691406 -104.41382813 117.11585938 -103.5625 116.1875 C-102.73878906 115.29417969 -101.91507813 114.40085937 -101.06640625 113.48046875 C-98.83280912 111.10551917 -98.83280912 111.10551917 -98 108 C-97.25363281 107.56042969 -96.50726563 107.12085938 -95.73828125 106.66796875 C-92.43724881 104.65721147 -90.57391805 102.34004528 -88.1875 99.3125 C-87.39730469 98.31863281 -86.60710937 97.32476562 -85.79296875 96.30078125 C-85.20128906 95.54152344 -84.60960937 94.78226562 -84 94 C-84.92683594 93.93941406 -85.85367188 93.87882812 -86.80859375 93.81640625 C-88.60490234 93.69072266 -88.60490234 93.69072266 -90.4375 93.5625 C-92.22994141 93.44068359 -92.22994141 93.44068359 -94.05859375 93.31640625 C-97 93 -97 93 -98 92 C-98.04092937 89.66702567 -98.04241723 87.33294775 -98 85 C-97.04130005 85.04882324 -97.04130005 85.04882324 -96.06323242 85.09863281 C-82.82297109 86.11575793 -82.82297109 86.11575793 -71.05859375 81.33203125 C-67.75940845 77.95804034 -65.11252777 74.22505554 -63 70 C-63.93457031 70.01160156 -64.86914062 70.02320313 -65.83203125 70.03515625 C-76.58813582 70.10904509 -87.26507073 69.65343048 -98 69 C-98 66.69 -98 64.38 -98 62 C-96.07136108 62.04096802 -96.07136108 62.04096802 -94.10375977 62.08276367 C-89.30059176 62.17006819 -84.49943568 62.18418264 -79.69555664 62.17700195 C-77.62280525 62.1839472 -75.55001913 62.21033791 -73.4777832 62.25708008 C-61.34960165 63.10546474 -61.34960165 63.10546474 -50.68701172 58.57666016 C-48.4423879 55.81625044 -46.71650862 53.10626706 -45 50 C-44.01 49.01 -43.02 48.02 -42 47 C-60.48 46.67 -78.96 46.34 -98 46 C-98 43.69 -98 41.38 -98 39 C-96.83061386 39.01784798 -96.83061386 39.01784798 -95.63760376 39.03605652 C-88.25261909 39.13890107 -80.87005691 39.18814835 -73.48443031 39.17878246 C-69.68804495 39.17581629 -65.89403415 39.19280562 -62.09814453 39.25708008 C-58.42721588 39.31847651 -54.75970473 39.32525878 -51.08842087 39.29583168 C-49.69545224 39.29394331 -48.30231191 39.31099613 -46.90983963 39.34822655 C-40.70565729 39.50340583 -35.92241428 39.47703559 -30.88299561 35.60513306 C-27.07807239 31.77297242 -24.3261426 28.30457041 -23 23 C-47.75 23 -72.5 23 -98 23 C-98 20.69 -98 18.38 -98 16 C-96.96540649 16.00523682 -95.93081299 16.01047363 -94.86486816 16.01586914 C-85.09559201 16.06009226 -75.32708676 16.06214856 -65.5577774 16.02334595 C-60.53560411 16.00474214 -55.51432445 16.00078767 -50.4921875 16.03076172 C-45.64170534 16.05916482 -40.79271275 16.0484993 -35.94230652 16.01119995 C-34.09564009 16.00377635 -32.24886207 16.01022604 -30.40229797 16.03103638 C-20.38601663 16.43607539 -20.38601663 16.43607539 -11.16088867 13.29296875 C-9.13378539 11.29801968 -7.58502482 9.35291402 -6 7 C-4.845248 5.6563346 -3.67919442 4.32226677 -2.5 3 C-1.2625 1.515 -1.2625 1.515 0 0 Z " fill="#E6963D" transform="translate(306,209)"/>
<path d="M0 0 C4.36692619 3.36617227 8.23274072 7.01072217 10 12.3125 C12.10621183 13.04688093 12.10621183 13.04688093 14.625 13.5 C20.553876 15.09067405 23.66745783 18.25763481 27 23.3125 C28.7421488 28.53894641 29.00347147 34.03350004 26.5 39.0625 C23.72139878 43.03990607 20.47928087 45.4500086 16 47.3125 C11.64422244 48.00117363 7.36321067 47.96707149 2.9609375 47.90625 C1.10150009 47.90631042 1.10150009 47.90631042 -0.79550171 47.90637207 C-3.40603733 47.90102855 -6.01657317 47.88349641 -8.62695312 47.85449219 C-11.29702366 47.82644797 -13.96391045 47.80875673 -16.63378906 47.81347656 C-20.49833049 47.82013465 -24.36209891 47.80502145 -28.2265625 47.78125 C-29.41730377 47.78104858 -30.60804504 47.78084717 -31.83486938 47.78063965 C-38.42930638 47.68652446 -43.54547683 47.463419 -48.64453125 42.8125 C-53.08283192 37.11247506 -53.80575263 32.38767036 -53 25.3125 C-51.25 21.9375 -51.25 21.9375 -49 19.3125 C-48.38125 18.57 -47.7625 17.8275 -47.125 17.0625 C-42.53578249 13.2831444 -37.56792904 13.07646278 -31.8125 13.1875 C-30.60207031 13.20554688 -29.39164063 13.22359375 -28.14453125 13.2421875 C-27.10683594 13.26539063 -26.06914062 13.28859375 -25 13.3125 C-24.01 13.3125 -23.02 13.3125 -22 13.3125 C-26.0271824 11.10713821 -29.43545749 9.85589792 -34 9.3125 C-32.64630626 4.5745719 -30.0543525 1.92850128 -26 -0.6875 C-17.2681749 -5.30158021 -8.53945082 -4.80344109 0 0 Z " fill="#1F5897" transform="translate(220,168.6875)"/>
<path d="M0 0 C1.06098372 0.00092179 2.12196745 0.00184359 3.2151022 0.00279331 C4.42558003 0.00141582 5.63605787 0.00003832 6.88321686 -0.00138092 C8.24225353 0.00216634 9.60128998 0.00580424 10.96032619 0.00952244 C12.40222038 0.00982855 13.84411472 0.00969566 15.28600883 0.00915718 C19.16035803 0.00893068 23.03467658 0.01474212 26.90901852 0.02176762 C30.5396068 0.02744689 34.17018749 0.02772988 37.8007803 0.02844334 C48.43070789 0.03369843 59.06062973 0.04765948 69.6905508 0.06054783 C93.4299258 0.08117283 117.1693008 0.10179783 141.6280508 0.12304783 C141.6280508 67.44304783 141.6280508 134.76304783 141.6280508 204.12304783 C94.1080508 204.12304783 46.5880508 204.12304783 -2.3719492 204.12304783 C-2.5575742 182.36367283 -2.7431992 160.60429783 -2.9344492 138.18554783 C-2.99576023 131.30332371 -3.05707127 124.42109959 -3.12024021 117.33032322 C-3.18823338 108.95593357 -3.18823338 108.95593357 -3.21873569 105.04124546 C-3.24109559 102.29459044 -3.26508444 99.54799364 -3.29136753 96.8013773 C-3.33096326 92.6522044 -3.36262913 88.50300636 -3.39367771 84.35376072 C-3.40664418 83.12073499 -3.41961065 81.88770926 -3.43297005 80.61731911 C-3.43998908 79.50759963 -3.44700811 78.39788015 -3.45423985 77.25453281 C-3.46253598 76.28204122 -3.47083212 75.30954962 -3.47937965 74.30758858 C-3.3719492 72.12304783 -3.3719492 72.12304783 -2.3719492 71.12304783 C-0.0619492 71.12304783 2.2480508 71.12304783 4.6280508 71.12304783 C4.6280508 112.37304783 4.6280508 153.62304783 4.6280508 196.12304783 C38.6180508 196.12304783 72.6080508 196.12304783 107.6280508 196.12304783 C107.6280508 196.78304783 107.6280508 197.44304783 107.6280508 198.12304783 C106.52717129 198.12082722 105.42629177 198.11860661 104.29205227 198.1163187 C93.8767614 198.09597661 83.46147461 198.08102261 73.04616833 198.07123566 C67.69259464 198.06603483 62.33903708 198.05898847 56.98547268 198.04760838 C51.81129963 198.03667945 46.63714204 198.03074994 41.46295834 198.02817059 C39.4967846 198.02633427 37.53061163 198.02274868 35.56444454 198.01731777 C21.70836321 197.94447531 21.70836321 197.94447531 7.9103384 199.10304356 C5.27907501 199.1261066 3.85660861 198.47144074 1.6280508 197.12304783 C1.2980508 199.10304783 0.9680508 201.08304783 0.6280508 203.12304783 C46.8280508 202.79304783 93.0280508 202.46304783 140.6280508 202.12304783 C140.6280508 135.79304783 140.6280508 69.46304783 140.6280508 1.12304783 C117.7549258 1.22617283 94.8818008 1.32929783 71.3155508 1.43554783 C64.08608547 1.46044285 56.85662014 1.48533787 49.4080801 1.51098728 C42.94289613 1.54753993 42.94289613 1.54753993 36.47773647 1.58805943 C33.59201834 1.60603861 30.70640197 1.61561127 27.82063198 1.62016392 C24.1428296 1.62623877 20.46536633 1.64651665 16.78768981 1.67720926 C14.79684505 1.69022718 12.80592097 1.688552 10.81503487 1.68635368 C9.05815959 1.70514721 9.05815959 1.70514721 7.26579189 1.72432041 C6.24352347 1.72892938 5.22125505 1.73353834 4.1680088 1.73828697 C1.6051739 1.93633567 1.6051739 1.93633567 -0.24383926 3.41749954 C-1.74099461 5.297888 -1.74099461 5.297888 -1.0594492 8.81054783 C-0.8325742 9.90367283 -0.6056992 10.99679783 -0.3719492 12.12304783 C0.6180508 12.12304783 1.6080508 12.12304783 2.6280508 12.12304783 C2.6074258 11.31867283 2.5868008 10.51429783 2.5655508 9.68554783 C2.6280508 7.12304783 2.6280508 7.12304783 3.6280508 6.12304783 C5.40876327 6.0357856 7.19288221 6.01605742 8.97570705 6.02539158 C10.0552969 6.02861423 11.13488674 6.03183689 12.24719143 6.0351572 C13.95165432 6.04772556 13.95165432 6.04772556 15.6905508 6.06054783 C17.40081448 6.06731541 17.40081448 6.06731541 19.14562893 6.0742197 C21.97315432 6.08605035 24.8005772 6.10253373 27.6280508 6.12304783 C27.6280508 6.45304783 27.6280508 6.78304783 27.6280508 7.12304783 C20.0380508 7.12304783 12.4480508 7.12304783 4.6280508 7.12304783 C4.6280508 9.10304783 4.6280508 11.08304783 4.6280508 13.12304783 C2.3180508 14.44304783 0.0080508 15.76304783 -2.3719492 17.12304783 C-3.50325803 13.72912132 -3.5048686 11.06969911 -3.4969492 7.49804783 C-3.50081638 5.74621189 -3.50081638 5.74621189 -3.5047617 3.95898533 C-3.32743857 0.17261503 -3.32743857 0.17261503 0 0 Z " fill="#23558F" transform="translate(190.37194919586182,149.87695217132568)"/>
<path d="M0 0 C0.70125 0.144375 1.4025 0.28875 2.125 0.4375 C2.62 2.4175 2.62 2.4175 3.125 4.4375 C2.17625 5.118125 1.2275 5.79875 0.25 6.5 C-3.22608102 9.36027179 -3.71705582 12.1145084 -4.875 16.4375 C-7 18.8125 -7 18.8125 -9.875 21.4375 C-11.28229458 22.97946715 -12.67459604 24.53520102 -14.0546875 26.1015625 C-14.77124512 26.91318848 -15.48780273 27.72481445 -16.22607422 28.56103516 C-17.04229248 29.48988525 -17.04229248 29.48988525 -17.875 30.4375 C-17.16312027 30.44780746 -16.45124054 30.45811493 -15.7177887 30.46873474 C-9.02217174 30.56654898 -2.32664482 30.66904004 4.36881924 30.77683926 C7.8113574 30.8320988 11.253904 30.88552347 14.6965332 30.93481445 C18.65064526 30.99150801 22.60460944 31.05607495 26.55859375 31.12109375 C28.42105995 31.14616249 28.42105995 31.14616249 30.32115173 31.17173767 C31.46225906 31.19168289 32.60336639 31.21162811 33.77905273 31.23217773 C35.29462013 31.25549416 35.29462013 31.25549416 36.84080505 31.27928162 C39.125 31.4375 39.125 31.4375 40.125 32.4375 C40.16592937 34.77047433 40.16741723 37.10455225 40.125 39.4375 C39.3056044 39.42782196 38.4862088 39.41814392 37.64198303 39.40817261 C29.88884204 39.3255342 22.13766814 39.29136734 14.38416386 39.31052971 C10.39854269 39.31870012 6.41476005 39.30866744 2.42944336 39.25585938 C-1.42287121 39.20550293 -5.27243136 39.20449791 -9.12491035 39.23654556 C-10.58843522 39.24027349 -12.05211716 39.22673885 -13.51530266 39.19500351 C-22.21307061 38.9718782 -22.21307061 38.9718782 -29.83816528 42.74371338 C-32.07230989 45.21012203 -34.03756158 47.6663738 -35.875 50.4375 C-39.24248512 48.91802501 -40.48340337 47.91649158 -41.875 44.4375 C-41.23691406 43.75042969 -40.59882813 43.06335938 -39.94140625 42.35546875 C-39.11511719 41.45441406 -38.28882813 40.55335938 -37.4375 39.625 C-36.61378906 38.73167969 -35.79007813 37.83835937 -34.94140625 36.91796875 C-32.70780912 34.54301917 -32.70780912 34.54301917 -31.875 31.4375 C-31.12863281 30.99792969 -30.38226563 30.55835938 -29.61328125 30.10546875 C-26.31224881 28.09471147 -24.44891805 25.77754528 -22.0625 22.75 C-21.27230469 21.75613281 -20.48210937 20.76226562 -19.66796875 19.73828125 C-19.07628906 18.97902344 -18.48460937 18.21976562 -17.875 17.4375 C-19.26525391 17.34662109 -19.26525391 17.34662109 -20.68359375 17.25390625 C-21.88113281 17.17011719 -23.07867187 17.08632813 -24.3125 17 C-25.50746094 16.91878906 -26.70242187 16.83757812 -27.93359375 16.75390625 C-30.875 16.4375 -30.875 16.4375 -31.875 15.4375 C-31.91592937 13.10452567 -31.91741723 10.77044775 -31.875 8.4375 C-31.20968262 8.44386475 -30.54436523 8.45022949 -29.85888672 8.45678711 C-26.82146966 8.4655138 -23.78706535 8.42073894 -20.75 8.375 C-19.17992187 8.39143555 -19.17992187 8.39143555 -17.578125 8.40820312 C-11.82597622 8.40282713 -11.82597622 8.40282713 -6.89501953 5.83227539 C-5.29625131 3.95718878 -5.29625131 3.95718878 -4.05078125 1.97851562 C-2.875 0.4375 -2.875 0.4375 0 0 Z " fill="#E5973F" transform="translate(239.875,285.5625)"/>
<path d="M0 0 C1.06098372 0.00092179 2.12196745 0.00184359 3.2151022 0.00279331 C4.42558003 0.00141582 5.63605787 0.00003832 6.88321686 -0.00138092 C8.24225353 0.00216634 9.60128998 0.00580424 10.96032619 0.00952244 C12.40222038 0.00982855 13.84411472 0.00969566 15.28600883 0.00915718 C19.16035803 0.00893068 23.03467658 0.01474212 26.90901852 0.02176762 C30.5396068 0.02744689 34.17018749 0.02772988 37.8007803 0.02844334 C48.43070789 0.03369843 59.06062973 0.04765948 69.6905508 0.06054783 C93.4299258 0.08117283 117.1693008 0.10179783 141.6280508 0.12304783 C141.6280508 67.44304783 141.6280508 134.76304783 141.6280508 204.12304783 C94.1080508 204.12304783 46.5880508 204.12304783 -2.3719492 204.12304783 C-2.7019492 162.21304783 -3.0319492 120.30304783 -3.3719492 77.12304783 C-2.7119492 77.12304783 -2.0519492 77.12304783 -1.3719492 77.12304783 C-1.3719492 118.37304783 -1.3719492 159.62304783 -1.3719492 202.12304783 C45.4880508 202.12304783 92.3480508 202.12304783 140.6280508 202.12304783 C140.6280508 135.79304783 140.6280508 69.46304783 140.6280508 1.12304783 C117.7549258 1.22617283 94.8818008 1.32929783 71.3155508 1.43554783 C64.08608547 1.46044285 56.85662014 1.48533787 49.4080801 1.51098728 C42.94289613 1.54753993 42.94289613 1.54753993 36.47773647 1.58805943 C33.59201834 1.60603861 30.70640197 1.61561127 27.82063198 1.62016392 C24.1428296 1.62623877 20.46536633 1.64651665 16.78768981 1.67720926 C14.79684505 1.69022718 12.80592097 1.688552 10.81503487 1.68635368 C9.05815959 1.70514721 9.05815959 1.70514721 7.26579189 1.72432041 C6.24352347 1.72892938 5.22125505 1.73353834 4.1680088 1.73828697 C1.6051739 1.93633567 1.6051739 1.93633567 -0.24383926 3.41749954 C-1.74099461 5.297888 -1.74099461 5.297888 -1.0594492 8.81054783 C-0.8325742 9.90367283 -0.6056992 10.99679783 -0.3719492 12.12304783 C0.6180508 12.12304783 1.6080508 12.12304783 2.6280508 12.12304783 C2.6074258 11.31867283 2.5868008 10.51429783 2.5655508 9.68554783 C2.6280508 7.12304783 2.6280508 7.12304783 3.6280508 6.12304783 C5.40876327 6.0357856 7.19288221 6.01605742 8.97570705 6.02539158 C10.0552969 6.02861423 11.13488674 6.03183689 12.24719143 6.0351572 C13.95165432 6.04772556 13.95165432 6.04772556 15.6905508 6.06054783 C17.40081448 6.06731541 17.40081448 6.06731541 19.14562893 6.0742197 C21.97315432 6.08605035 24.8005772 6.10253373 27.6280508 6.12304783 C27.6280508 6.45304783 27.6280508 6.78304783 27.6280508 7.12304783 C20.0380508 7.12304783 12.4480508 7.12304783 4.6280508 7.12304783 C4.6280508 9.10304783 4.6280508 11.08304783 4.6280508 13.12304783 C2.3180508 14.44304783 0.0080508 15.76304783 -2.3719492 17.12304783 C-3.50325803 13.72912132 -3.5048686 11.06969911 -3.4969492 7.49804783 C-3.50081638 5.74621189 -3.50081638 5.74621189 -3.5047617 3.95898533 C-3.32743857 0.17261503 -3.32743857 0.17261503 0 0 Z " fill="#244871" transform="translate(190.37194919586182,149.87695217132568)"/>
<path d="M0 0 C27.72 0 55.44 0 84 0 C82.23979836 3.52040328 80.6400645 6.11992963 78 9 C77.01 9 76.02 9 75 9 C75 8.34 75 7.68 75 7 C50.25 7 25.5 7 0 7 C0 4.69 0 2.38 0 0 Z " fill="#215791" transform="translate(208,225)"/>
<path d="M0 0 C1.03985046 -0.0010952 1.03985046 -0.0010952 2.10070801 -0.00221252 C4.37939234 0.00125558 6.65600154 0.04007375 8.93432617 0.0793457 C10.51900618 0.08867675 12.10370066 0.09579149 13.68840027 0.1007843 C17.84968218 0.11983159 22.01008485 0.16891156 26.17102051 0.2243042 C30.42077746 0.27554643 34.67067715 0.29830888 38.9206543 0.32348633 C47.252437 0.37703363 55.58350644 0.46231753 63.91479492 0.56762695 C63.91479492 3.20762695 63.91479492 5.84762695 63.91479492 8.56762695 C38.83479492 8.56762695 13.75479492 8.56762695 -12.08520508 8.56762695 C-12.08520508 5.56762695 -12.08520508 5.56762695 -10.0280304 2.91560364 C-6.38297154 0.00733954 -4.61694159 -0.04100303 0 0 Z " fill="#245A95" transform="translate(247.085205078125,293.432373046875)"/>
<path d="M0 0 C1.17769455 -0.00307663 2.3553891 -0.00615326 3.56877136 -0.00932312 C4.83554214 -0.0021376 6.10231293 0.00504791 7.4074707 0.01245117 C9.35977348 0.0131385 9.35977348 0.0131385 11.35151672 0.01383972 C14.10109827 0.01540126 16.850549 0.02366818 19.60009766 0.03710938 C23.13107898 0.05414902 26.66191736 0.05792212 30.19293499 0.05716419 C33.55613286 0.05750067 36.91928342 0.06633153 40.2824707 0.07495117 C42.19173592 0.07662041 42.19173592 0.07662041 44.13957214 0.07832336 C45.30781021 0.08470322 46.47604828 0.09108307 47.6796875 0.09765625 C48.71353073 0.10146805 49.74737396 0.10527985 50.81254578 0.10920715 C53.14575195 0.24291992 53.14575195 0.24291992 54.14575195 1.24291992 C54.14575195 3.55291992 54.14575195 5.86291992 54.14575195 8.24291992 C32.03575195 8.24291992 9.92575195 8.24291992 -12.85424805 8.24291992 C-9.85424805 2.24291992 -9.85424805 2.24291992 -8.03263855 0.88310242 C-5.27583412 0.07293641 -2.87596727 -0.00395502 0 0 Z " fill="#265A93" transform="translate(225.854248046875,316.757080078125)"/>
<path d="M0 0 C21.12 0 42.24 0 64 0 C61.36746097 5.26507805 61.36746097 5.26507805 59 7 C56.39936829 7.36076355 56.39936829 7.36076355 53.2434082 7.34057617 C52.06241043 7.34034958 50.88141266 7.34012299 49.66462708 7.33988953 C48.38955795 7.32440567 47.11448883 7.30892181 45.80078125 7.29296875 C44.49545944 7.28872391 43.19013763 7.28447906 41.84526062 7.28010559 C38.37794721 7.26866089 34.91101187 7.23919754 31.44384766 7.20599365 C27.90467442 7.17528433 24.36543999 7.16159845 20.82617188 7.14648438 C13.88395945 7.11432705 6.94199789 7.06313554 0 7 C0 4.69 0 2.38 0 0 Z " fill="#26558D" transform="translate(208,248)"/>
<path d="M0 0 C1.40897804 0.00333092 1.40897804 0.00333092 2.84642029 0.00672913 C3.90744461 0.00680466 4.96846893 0.00688019 6.06164551 0.00695801 C7.21579453 0.01211929 8.36994354 0.01728058 9.55906677 0.02259827 C10.73404221 0.02401321 11.90901764 0.02542816 13.11959839 0.02688599 C16.88981116 0.0325046 20.65996556 0.04506026 24.43016052 0.05775452 C26.97898779 0.06276712 29.52781599 0.06733044 32.0766449 0.07142639 C38.34033685 0.08248007 44.60399452 0.0992363 50.86766052 0.12025452 C51.24829273 2.44634022 51.58035997 4.78080716 51.86766052 7.12025452 C50.23136337 8.75655167 48.37604601 8.24764309 46.12010193 8.24964905 C45.10880219 8.25280121 44.09750244 8.25595337 43.05555725 8.25920105 C41.40407181 8.2561647 41.40407181 8.2561647 39.71922302 8.25306702 C38.5957547 8.25402374 37.47228638 8.25498047 36.31477356 8.25596619 C33.93233688 8.25664831 31.54989835 8.25479182 29.16746521 8.25062561 C25.5154045 8.24528776 21.86346733 8.25056442 18.21141052 8.25697327 C15.90151442 8.25631229 13.59161839 8.25503074 11.28172302 8.25306702 C10.18478119 8.25509125 9.08783936 8.25711548 7.95765686 8.25920105 C6.43125076 8.25447281 6.43125076 8.25447281 4.87400818 8.24964905 C3.9776767 8.24885345 3.08134521 8.24805786 2.15785217 8.24723816 C-0.13233948 8.12025452 -0.13233948 8.12025452 -3.13233948 7.12025452 C-3.17488304 5.12070706 -3.17314731 3.11983815 -3.13233948 1.12025452 C-2.13233948 0.12025452 -2.13233948 0.12025452 0 0 Z " fill="#235896" transform="translate(260.13233947753906,198.87974548339844)"/>
<path d="M0 0 C1.00073547 0.00022659 2.00147095 0.00045319 3.03253174 0.00068665 C4.64209747 0.02391243 4.64209747 0.02391243 6.28417969 0.04760742 C7.38832214 0.05185226 8.4924646 0.05609711 9.63006592 0.06047058 C13.15564385 0.07725949 16.6806496 0.11491309 20.20605469 0.15307617 C22.59667143 0.16812269 24.98729714 0.18181115 27.37792969 0.1940918 C33.23749982 0.22716374 39.09673637 0.27736571 44.95605469 0.34057617 C44.95605469 2.65057617 44.95605469 4.96057617 44.95605469 7.34057617 C39.18977297 8.58234623 33.51714631 8.46731926 27.65136719 8.43823242 C26.57225067 8.43681747 25.49313416 8.43540253 24.38131714 8.4339447 C20.94786766 8.42836461 17.51448433 8.41581572 14.08105469 8.40307617 C11.7477223 8.3980586 9.41438888 8.39349614 7.08105469 8.3894043 C1.37269894 8.3784017 -4.33561846 8.36168338 -10.04394531 8.34057617 C-9.71838612 5.3291536 -9.44320399 3.74988013 -7.29669189 1.54936218 C-4.64140636 0.12458053 -3.00262085 -0.02274713 0 0 Z " fill="#2E527B" transform="translate(266.0439453125,270.659423828125)"/>
<path d="M0 0 C17.82 0 35.64 0 54 0 C54.495 3.465 54.495 3.465 55 7 C36.85 7 18.7 7 0 7 C0 4.69 0 2.38 0 0 Z " fill="#215795" transform="translate(257,176)"/>
<path d="M0 0 C33.99 0 67.98 0 103 0 C103.495 0.99 103.495 0.99 104 2 C100.54167498 3.72916251 96.5418962 3.19997135 92.73266602 3.23706055 C91.77158936 3.25017273 90.8105127 3.26328491 89.8203125 3.27679443 C86.63155149 3.31870104 83.44276518 3.35314182 80.25390625 3.38671875 C78.04434552 3.41236329 75.83478641 3.43814733 73.62522888 3.46406555 C68.98903451 3.51708998 64.35281651 3.56600942 59.71655273 3.61254883 C53.76646709 3.6729465 47.81664184 3.74716021 41.86676121 3.82492352 C37.30216362 3.88243671 32.73750276 3.93077557 28.17277336 3.976511 C25.97862958 3.99996394 23.7845187 4.02673147 21.59045601 4.05682945 C18.52588949 4.09786017 15.46146186 4.12611947 12.39672852 4.15112305 C11.48493332 4.16609329 10.57313812 4.18106354 9.63371277 4.19648743 C8.38236038 4.20281693 8.38236038 4.20281693 7.10572815 4.20927429 C6.01868261 4.22115296 6.01868261 4.22115296 4.90967655 4.2332716 C3 4 3 4 0 2 C0 1.34 0 0.68 0 0 Z " fill="#215A99" transform="translate(218,152)"/>
<path d="M0 0 C14.19 0 28.38 0 43 0 C40.57142857 4.85714286 40.57142857 4.85714286 38 7 C37.34 7 36.68 7 36 7 C35.67 7.66 35.34 8.32 35 9 C23.45 8.34 11.9 7.68 0 7 C0 4.69 0 2.38 0 0 Z " fill="#225693" transform="translate(208,271)"/>
<path d="M0 0 C3.07275391 -0.34057617 3.07275391 -0.34057617 6.9765625 -0.29296875 C7.66181 -0.28872391 8.3470575 -0.28447906 9.05307007 -0.28010559 C11.24411129 -0.26329753 13.43423632 -0.22564405 15.625 -0.1875 C17.10936173 -0.17245579 18.59373785 -0.15876693 20.078125 -0.14648438 C23.71904833 -0.1133879 27.35943478 -0.06159207 31 0 C31 2.31 31 4.62 31 7 C19.45 7 7.9 7 -4 7 C-2 3 -2 3 0 0 Z " fill="#245790" transform="translate(280,248)"/>
<path d="M0 0 C2.31 0 4.62 0 7 0 C7 35.31 7 70.62 7 107 C6.34 107 5.68 107 5 107 C4.67 72.02 4.34 37.04 4 1 C1.525 2.485 1.525 2.485 -1 4 C-0.67 2.68 -0.34 1.36 0 0 Z " fill="#294E77" transform="translate(188,221)"/>
<path d="M0 0 C1.17769455 -0.00307663 2.3553891 -0.00615326 3.56877136 -0.00932312 C4.83554214 -0.0021376 6.10231293 0.00504791 7.4074707 0.01245117 C9.35977348 0.0131385 9.35977348 0.0131385 11.35151672 0.01383972 C14.10109827 0.01540126 16.850549 0.02366818 19.60009766 0.03710938 C23.13107898 0.05414902 26.66191736 0.05792212 30.19293499 0.05716419 C33.55613286 0.05750067 36.91928342 0.06633153 40.2824707 0.07495117 C42.19173592 0.07662041 42.19173592 0.07662041 44.13957214 0.07832336 C45.30781021 0.08470322 46.47604828 0.09108307 47.6796875 0.09765625 C48.71353073 0.10146805 49.74737396 0.10527985 50.81254578 0.10920715 C53.14575195 0.24291992 53.14575195 0.24291992 54.14575195 1.24291992 C54.14575195 3.55291992 54.14575195 5.86291992 54.14575195 8.24291992 C32.03575195 8.24291992 9.92575195 8.24291992 -12.85424805 8.24291992 C-9.85424805 2.24291992 -9.85424805 2.24291992 -8.03263855 0.88310242 C-5.27583412 0.07293641 -2.87596727 -0.00395502 0 0 Z M-5.85424805 1.24291992 C-5.85424805 1.90291992 -5.85424805 2.56291992 -5.85424805 3.24291992 C-6.51424805 3.24291992 -7.17424805 3.24291992 -7.85424805 3.24291992 C-8.18424805 4.56291992 -8.51424805 5.88291992 -8.85424805 7.24291992 C-1.13127342 7.26829983 6.59169042 7.28579943 14.31469727 7.29785156 C16.94132896 7.30287659 19.56795786 7.30969767 22.19458008 7.31835938 C25.97258189 7.33050499 29.75054667 7.3361666 33.52856445 7.34057617 C35.28669968 7.3483181 35.28669968 7.3483181 37.08035278 7.35621643 C38.18104095 7.35629196 39.28172913 7.35636749 40.41577148 7.35644531 C41.37951691 7.35866592 42.34326233 7.36088654 43.33621216 7.36317444 C46.33967505 7.23461958 49.19292437 6.79383994 52.14575195 6.24291992 C51.65075195 4.26291992 51.65075195 4.26291992 51.14575195 2.24291992 C32.33575195 1.91291992 13.52575195 1.58291992 -5.85424805 1.24291992 Z " fill="#34577B" transform="translate(225.854248046875,316.757080078125)"/>
<path d="M0 0 C27.72 0 55.44 0 84 0 C82.23979836 3.52040328 80.6400645 6.11992963 78 9 C77.01 9 76.02 9 75 9 C75 8.34 75 7.68 75 7 C50.25 7 25.5 7 0 7 C0 4.69 0 2.38 0 0 Z M1 1 C1 2.65 1 4.3 1 6 C10.56203189 6.04636277 20.12402502 6.08188925 29.68614483 6.10362434 C34.12633424 6.11405666 38.56644668 6.12820582 43.0065918 6.15087891 C47.29245064 6.17262691 51.5782355 6.18457278 55.86414528 6.18975449 C57.49839251 6.19344672 59.13263574 6.20065674 60.76685143 6.21146011 C63.05779105 6.22600111 65.34842586 6.22797686 67.6394043 6.22705078 C69.59465279 6.23371262 69.59465279 6.23371262 71.58940125 6.24050903 C74.85143439 6.01047657 77.07689286 5.41258768 80 4 C80 3.01 80 2.02 80 1 C53.93 1 27.86 1 1 1 Z " fill="#2C4E74" transform="translate(208,225)"/>
<path d="M0 0 C1.32 0 2.64 0 4 0 C2.61122646 3.35620271 1.08322035 5.07298728 -2 7 C-2.66 7 -3.32 7 -4 7 C-4.35964844 8.05767578 -4.35964844 8.05767578 -4.7265625 9.13671875 C-6.21072314 12.47380388 -8.08467875 14.97052329 -10.375 17.8125 C-11.14585937 18.78832031 -11.91671875 19.76414062 -12.7109375 20.76953125 C-15 23 -15 23 -19 23 C-20.75 21.5 -20.75 21.5 -22 20 C-20.19526171 15.94614063 -17.54211524 13.13397514 -14.55859375 9.90234375 C-12.7955971 7.98116107 -12.7955971 7.98116107 -12 5 C-9.4375 3.8125 -9.4375 3.8125 -7 3 C-6.67 3.99 -6.34 4.98 -6 6 C-5.01 6 -4.02 6 -3 6 C-2.87625 5.38125 -2.7525 4.7625 -2.625 4.125 C-2 2 -2 2 0 0 Z " fill="#D99549" transform="translate(220,312)"/>
<path d="M0 0 C0.94082428 0.00007553 1.88164856 0.00015106 2.85098267 0.00022888 C3.86872772 0.00539017 4.88647278 0.01055145 5.93505859 0.01586914 C7.49563492 0.01799156 7.49563492 0.01799156 9.08773804 0.02015686 C12.4196863 0.02576673 15.75156804 0.03832092 19.08349609 0.05102539 C21.33870346 0.05603912 23.59391187 0.06060225 25.84912109 0.06469727 C31.38560223 0.07573936 36.92204441 0.09248712 42.45849609 0.11352539 C42.45849609 1.43352539 42.45849609 2.75352539 42.45849609 4.11352539 C26.28849609 4.11352539 10.11849609 4.11352539 -6.54150391 4.11352539 C-6.54150391 3.12352539 -6.54150391 2.13352539 -6.54150391 1.11352539 C-4.14568045 -0.08438634 -2.67372853 -0.00714901 0 0 Z " fill="#225996" transform="translate(266.54150390625,272.886474609375)"/>
<path d="M0 0 C4.875 2.625 4.875 2.625 6 6 C-2.46112105 16.05357694 -2.46112105 16.05357694 -6.875 18.3125 C-10.3692915 20.19941741 -11.19397182 21.55994632 -13 25 C-15 27.3125 -15 27.3125 -17 29 C-17.99 29 -18.98 29 -20 29 C-19.8125 27.25 -19.8125 27.25 -19 25 C-18.195625 24.360625 -17.39125 23.72125 -16.5625 23.0625 C-13.75844138 20.80557477 -13.16572848 19.3178426 -12 16 C-11.34 15.67 -10.68 15.34 -10 15 C-9.67 14.01 -9.34 13.02 -9 12 C-7.35 11.67 -5.7 11.34 -4 11 C-4.268125 10.113125 -4.53625 9.22625 -4.8125 8.3125 C-5 5 -5 5 -2.5625 2.125 C-1.716875 1.42375 -0.87125 0.7225 0 0 Z " fill="#F69B32" transform="translate(306,209)"/>
<path d="M0 0 C7.26 0 14.52 0 22 0 C20.01969631 4.95075921 19.40769284 6.38825935 15 9 C11.484375 9.20703125 11.484375 9.20703125 7.75 8.8125 C6.50734375 8.69519531 5.2646875 8.57789063 3.984375 8.45703125 C1 8 1 8 0 7 C0 4.69 0 2.38 0 0 Z " fill="#24578E" transform="translate(208,294)"/>
<path d="M0 0 C10.49270826 -0.06822677 20.95215896 0.12991453 31.4375 0.5 C32.86262237 0.54840835 34.28775259 0.59658634 35.71289062 0.64453125 C39.14202105 0.76038214 42.57103671 0.87929125 46 1 C45.67 1.99 45.34 2.98 45 4 C30.15 4 15.3 4 0 4 C0 2.68 0 1.36 0 0 Z " fill="#1F5697" transform="translate(209,249)"/>
<path d="M0 0 C21.12 0 42.24 0 64 0 C61.36746097 5.26507805 61.36746097 5.26507805 59 7 C56.39936829 7.36076355 56.39936829 7.36076355 53.2434082 7.34057617 C52.06241043 7.34034958 50.88141266 7.34012299 49.66462708 7.33988953 C48.38955795 7.32440567 47.11448883 7.30892181 45.80078125 7.29296875 C44.49545944 7.28872391 43.19013763 7.28447906 41.84526062 7.28010559 C38.37794721 7.26866089 34.91101187 7.23919754 31.44384766 7.20599365 C27.90467442 7.17528433 24.36543999 7.16159845 20.82617188 7.14648438 C13.88395945 7.11432705 6.94199789 7.06313554 0 7 C0 4.69 0 2.38 0 0 Z M1 1 C1 2.65 1 4.3 1 6 C8.39732867 6.02314716 15.79464955 6.04092723 23.19200706 6.05181217 C26.62671562 6.05703579 30.06139943 6.06412401 33.49609375 6.07543945 C37.44270535 6.08836035 41.38930684 6.09323252 45.3359375 6.09765625 C46.57242035 6.10281754 47.8089032 6.10797882 49.08285522 6.11329651 C50.79440292 6.11340981 50.79440292 6.11340981 52.54052734 6.11352539 C53.548685 6.115746 54.55684265 6.11796661 55.59555054 6.12025452 C58.01333061 6.16082548 58.01333061 6.16082548 60 5 C60 3.68 60 2.36 60 1 C40.53 1 21.06 1 1 1 Z " fill="#2F4F72" transform="translate(208,248)"/>
<path d="M0 0 C17.49 0 34.98 0 53 0 C53.495 3.465 53.495 3.465 54 7 C53 8 53 8 50.30859375 8.1328125 C34.8647098 8.10164422 19.4332833 7.531062 4 7 C4 6.67 4 6.34 4 6 C19.51 5.67 35.02 5.34 51 5 C51.33 4.01 51.66 3.02 52 2 C34.84 1.67 17.68 1.34 0 1 C0 0.67 0 0.34 0 0 Z " fill="#254C70" transform="translate(258,199)"/>
<path d="M0 0 C17.82 0 35.64 0 54 0 C54.495 3.465 54.495 3.465 55 7 C36.85 7 18.7 7 0 7 C0 4.69 0 2.38 0 0 Z M3 1 C2.67 2.32 2.34 3.64 2 5 C4.43967497 6.21983748 5.99904524 6.12051527 8.72509766 6.11352539 C10.19639633 6.11341209 10.19639633 6.11341209 11.69741821 6.11329651 C12.75891083 6.10813522 13.82040344 6.10297394 14.9140625 6.09765625 C15.99883881 6.0962413 17.08361511 6.09482635 18.20126343 6.09336853 C21.67587 6.08775802 25.15041281 6.07520372 28.625 6.0625 C30.97656157 6.05748635 33.32812415 6.05292321 35.6796875 6.04882812 C41.45314686 6.03778518 47.22656888 6.02103679 53 6 C53 4.35 53 2.7 53 1 C36.5 1 20 1 3 1 Z " fill="#2A4B70" transform="translate(257,176)"/>
<path d="M0 0 C0.69867618 2.49527208 1.1088566 4.85530187 1.4375 7.4375 C2.31615195 13.0022957 3.67204565 16.30850953 8 20 C11.20794876 21.95964614 13.62828302 22.2485742 17.36352539 22.24291992 C18.9702285 22.24753487 18.9702285 22.24753487 20.60939026 22.25224304 C21.76051804 22.24505753 22.91164581 22.23787201 24.09765625 22.23046875 C25.28346786 22.23001053 26.46927948 22.22955231 27.69102478 22.2290802 C30.19677736 22.22606007 32.70252809 22.21818092 35.20825195 22.20581055 C39.05101139 22.18755458 42.89352985 22.1853009 46.73632812 22.18554688 C49.16927292 22.18063155 51.60221609 22.17480317 54.03515625 22.16796875 C55.18830826 22.16685593 56.34146027 22.1657431 57.52955627 22.16459656 C59.13153114 22.15502678 59.13153114 22.15502678 60.76586914 22.14526367 C61.70644669 22.14145187 62.64702423 22.13764008 63.61610413 22.13371277 C66.14869967 22.09632419 66.14869967 22.09632419 69 21 C69.33 20.34 69.66 19.68 70 19 C72.5 18 72.5 18 75 17 C75.33 16.34 75.66 15.68 76 15 C76.99 15.495 76.99 15.495 78 16 C70.80314783 23.60810086 70.80314783 23.60810086 65.27516174 24.38095093 C63.80006386 24.3845311 63.80006386 24.3845311 62.29516602 24.38818359 C60.61300743 24.40236832 60.61300743 24.40236832 58.89686584 24.4168396 C57.69468918 24.41076691 56.49251251 24.40469421 55.25390625 24.3984375 C53.38810158 24.40274277 53.38810158 24.40274277 51.48460388 24.40713501 C48.18403332 24.40969661 44.88388812 24.39764673 41.58337402 24.38085938 C39.56578011 24.37500951 37.54857818 24.38083391 35.53100586 24.39111328 C31.64678865 24.4096696 27.7631478 24.40739334 23.87890625 24.3984375 C22.67875381 24.40451019 21.47860138 24.41058289 20.24208069 24.4168396 C13.60593585 24.36103747 8.48895831 24.18232777 3.35546875 19.5 C-0.00650233 15.18228463 -1.14095065 12.35274604 -1.125 6.9375 C-1.12757813 6.05964844 -1.13015625 5.18179688 -1.1328125 4.27734375 C-1 2 -1 2 0 0 Z " fill="#234970" transform="translate(168,192)"/>
<path d="M0 0 C2.33837891 -0.34057617 2.33837891 -0.34057617 5.2265625 -0.29296875 C6.7734375 -0.2784668 6.7734375 -0.2784668 8.3515625 -0.26367188 C9.43179688 -0.23853516 10.51203125 -0.21339844 11.625 -0.1875 C12.71296875 -0.17396484 13.8009375 -0.16042969 14.921875 -0.14648438 C17.61507409 -0.11104754 20.30729374 -0.06164331 23 0 C23.33 1.32 23.66 2.64 24 4 C17.4 4.33 10.8 4.66 4 5 C3.67 6.65 3.34 8.3 3 10 C2.01 10 1.02 10 0 10 C-1.125 6.6875 -1.125 6.6875 -2 3 C-1.34 2.01 -0.68 1.02 0 0 Z " fill="#225998" transform="translate(190,152)"/>
<path d="M0 0 C-6.75 4 -6.75 4 -9 4 C-9 4.66 -9 5.32 -9 6 C-7.02 5.67 -5.04 5.34 -3 5 C-3.226875 5.763125 -3.45375 6.52625 -3.6875 7.3125 C-3.8421875 8.6428125 -3.8421875 8.6428125 -4 10 C-3.0206121 11.02019573 -2.02104551 12.02149805 -1 13 C-1.3125 15.1875 -1.3125 15.1875 -2 17 C-2.639375 16.38125 -3.27875 15.7625 -3.9375 15.125 C-7.81563076 12.43405212 -11.40435579 11.76093455 -16 11 C-14.38848806 5.35970819 -10.65875028 2.72036783 -5.875 -0.375 C-3.55678958 -1.14773681 -2.27014655 -0.81076663 0 0 Z " fill="#245284" transform="translate(202,167)"/>
<path d="M0 0 C1.04994141 -0.01611328 2.09988281 -0.03222656 3.18164062 -0.04882812 C4.19291016 -0.04947266 5.20417969 -0.05011719 6.24609375 -0.05078125 C7.16962646 -0.05376221 8.09315918 -0.05674316 9.04467773 -0.05981445 C11.98352853 0.37475817 13.36381782 1.36487507 15.5625 3.3125 C14.5625 4.3125 14.5625 4.3125 11.78686523 4.42602539 C10.57716064 4.42078857 9.36745605 4.41555176 8.12109375 4.41015625 C6.81591797 4.40693359 5.51074219 4.40371094 4.16601562 4.40039062 C2.7773431 4.39203401 1.38867123 4.38356905 0 4.375 C-1.39257656 4.36998666 -2.78515481 4.36542347 -4.17773438 4.36132812 C-7.5976987 4.34949434 -11.01757844 4.3330088 -14.4375 4.3125 C-14.4375 3.6525 -14.4375 2.9925 -14.4375 2.3125 C-9.87689567 -0.72790289 -5.36401986 -0.01640373 0 0 Z " fill="#205999" transform="translate(251.4375,295.6875)"/>
<path d="M0 0 C0.66 0.33 1.32 0.66 2 1 C1.67 2.32 1.34 3.64 1 5 C1.79889648 4.9270874 2.59779297 4.8541748 3.42089844 4.77905273 C10.28716286 4.21401436 17.06690896 3.92167922 23.953125 3.97265625 C24.71298706 3.97816498 25.47284912 3.98367371 26.2557373 3.98934937 C29.39213216 4.01696807 32.52833505 4.05250323 35.66455078 4.09594727 C37.98991649 4.12596571 40.31512889 4.14382827 42.640625 4.16015625 C43.70763641 4.18034569 43.70763641 4.18034569 44.79620361 4.20094299 C46.53207208 4.20989201 48.2678349 4.11368155 50 4 C50.66 3.34 51.32 2.68 52 2 C52 3.32 52 4.64 52 6 C46.23371829 7.24177006 40.56109163 7.12674309 34.6953125 7.09765625 C33.61619598 7.0962413 32.53707947 7.09482635 31.42526245 7.09336853 C27.99181298 7.08778844 24.55842964 7.07523955 21.125 7.0625 C18.79166761 7.05748243 16.4583342 7.05291997 14.125 7.04882812 C8.41664425 7.03782553 2.70832685 7.02110721 -3 7 C-2.25 2.25 -2.25 2.25 0 0 Z " fill="#1D436B" transform="translate(259,272)"/>
<path d="M0 0 C14.19 0 28.38 0 43 0 C40.57142857 4.85714286 40.57142857 4.85714286 38 7 C37.34 7 36.68 7 36 7 C35.67 7.66 35.34 8.32 35 9 C34.505 8.01 34.505 8.01 34 7 C35.26422764 4.47154472 36.52845528 4.23577236 39 3 C39.33 2.34 39.66 1.68 40 1 C27.13 1 14.26 1 1 1 C1 2.65 1 4.3 1 6 C2.27617187 5.91621094 3.55234375 5.83242188 4.8671875 5.74609375 C6.53644035 5.64293768 8.20571221 5.54008901 9.875 5.4375 C10.71675781 5.38142578 11.55851563 5.32535156 12.42578125 5.26757812 C13.23144531 5.21923828 14.03710938 5.17089844 14.8671875 5.12109375 C15.98262939 5.05039673 15.98262939 5.05039673 17.12060547 4.97827148 C19 5 19 5 21 6 C22.54023996 6.06950541 24.08334988 6.08452357 25.625 6.0625 C26.44226563 6.05347656 27.25953125 6.04445313 28.1015625 6.03515625 C28.72804687 6.02355469 29.35453125 6.01195312 30 6 C30 6.33 30 6.66 30 7 C19.96033167 8.46646841 10.07002829 7.67829206 0 7 C0 4.69 0 2.38 0 0 Z " fill="#28496E" transform="translate(208,271)"/>
<path d="M0 0 C1.03919334 -0.00021904 1.03919334 -0.00021904 2.09938049 -0.0004425 C4.3935965 0.00025521 6.68773173 0.00804097 8.98193359 0.01586914 C10.57091223 0.01773382 12.15989144 0.01915749 13.74887085 0.02015686 C17.93446434 0.02397808 22.12002323 0.033805 26.30560303 0.04486084 C30.57531262 0.05508345 34.8450278 0.0596563 39.11474609 0.06469727 C47.49497032 0.07542761 55.87516641 0.09249931 64.25537109 0.11352539 C64.25537109 2.75352539 64.25537109 5.39352539 64.25537109 8.11352539 C62.93537109 7.78352539 61.61537109 7.45352539 60.25537109 7.11352539 C61.24537109 7.11352539 62.23537109 7.11352539 63.25537109 7.11352539 C62.76037109 4.63852539 62.76037109 4.63852539 62.25537109 2.11352539 C54.19664246 2.06700077 46.13797079 2.03155461 38.07914066 2.00990105 C34.3363219 1.99950373 30.59359563 1.98541944 26.85083008 1.96264648 C23.23278849 1.94077244 19.61483537 1.92892636 15.99673271 1.9237709 C14.62256924 1.9201011 13.24841012 1.91293554 11.87428474 1.90206528 C4.34370357 1.84491113 -2.46687742 2.10754525 -9.74462891 4.11352539 C-9.41462891 3.12352539 -9.08462891 2.13352539 -8.74462891 1.11352539 C-5.82380435 -0.34688689 -3.26161522 -0.00576257 0 0 Z " fill="#2E5077" transform="translate(246.74462890625,293.886474609375)"/>
<path d="M0 0 C16.83 0 33.66 0 51 0 C51 0.33 51 0.66 51 1 C30.21 1.495 30.21 1.495 9 2 C9.66 2.66 10.32 3.32 11 4 C9.73392393 4.53229326 8.46189588 5.05044544 7.1875 5.5625 C6.47980469 5.85253906 5.77210938 6.14257812 5.04296875 6.44140625 C3 7 3 7 0 6 C0 4.02 0 2.04 0 0 Z " fill="#245285" transform="translate(257,200)"/>
<path d="M0 0 C2.475 0.495 2.475 0.495 5 1 C5 3.31 5 5.62 5 8 C-17.11 8 -39.22 8 -62 8 C-59 2 -59 2 -56.8125 1.125 C-55.9153125 1.063125 -55.9153125 1.063125 -55 1 C-55 1.66 -55 2.32 -55 3 C-55.66 3 -56.32 3 -57 3 C-57.33 4.32 -57.66 5.64 -58 7 C-37.54 7 -17.08 7 4 7 C3.505 4.525 3.505 4.525 3 2 C2.01 1.34 1.02 0.68 0 0 Z " fill="#2F4F71" transform="translate(275,317)"/>
<path d="M0 0 C0.90105469 0.02707031 1.80210937 0.05414063 2.73046875 0.08203125 C3.76107422 0.13423828 3.76107422 0.13423828 4.8125 0.1875 C4.8125 2.4975 4.8125 4.8075 4.8125 7.1875 C-0.1375 7.1875 -5.0875 7.1875 -10.1875 7.1875 C-7.42822995 1.6689599 -6.29695814 -0.24533603 0 0 Z " fill="#2A5788" transform="translate(306.1875,224.8125)"/>
<path d="M0 0 C3.07275391 -0.34057617 3.07275391 -0.34057617 6.9765625 -0.29296875 C7.66181 -0.28872391 8.3470575 -0.28447906 9.05307007 -0.28010559 C11.24411129 -0.26329753 13.43423632 -0.22564405 15.625 -0.1875 C17.10936173 -0.17245579 18.59373785 -0.15876693 20.078125 -0.14648438 C23.71904833 -0.1133879 27.35943478 -0.06159207 31 0 C31 2.31 31 4.62 31 7 C19.45 7 7.9 7 -4 7 C-2 3 -2 3 0 0 Z M1 1 C0.34 2.32 -0.32 3.64 -1 5 C0.10267706 6.32887035 0.10267706 6.32887035 2.86743164 6.11352539 C4.11903076 6.10828857 5.37062988 6.10305176 6.66015625 6.09765625 C7.32462265 6.0962413 7.98908905 6.09482635 8.6736908 6.09336853 C10.80333899 6.08775518 12.93288339 6.07520054 15.0625 6.0625 C16.50325369 6.05748671 17.94400903 6.05292351 19.38476562 6.04882812 C22.92321102 6.03778145 26.46159539 6.02050792 30 6 C30 4.35 30 2.7 30 1 C20.43 1 10.86 1 1 1 Z " fill="#36506B" transform="translate(280,248)"/>
<path d="M0 0 C0.99 0.33 1.98 0.66 3 1 C1.625 3 1.625 3 0 5 C-0.66 5 -1.32 5 -2 5 C-1.938125 5.928125 -1.87625 6.85625 -1.8125 7.8125 C-2 11 -2 11 -3.5 12.875 C-4.2425 13.431875 -4.2425 13.431875 -5 14 C-7.62187494 12.95125002 -8.79371361 12.35068687 -10.25 9.875 C-10.4975 9.25625 -10.745 8.6375 -11 8 C-8.21727004 4.72620005 -4.70883468 3.06046371 -1 1 C-0.67 0.67 -0.34 0.34 0 0 Z " fill="#F4972A" transform="translate(209,322)"/>
<path d="M0 0 C4.875 2.625 4.875 2.625 6 6 C4.61240749 7.61130023 3.21454377 9.21375841 1.8125 10.8125 C1.03519531 11.70582031 0.25789063 12.59914062 -0.54296875 13.51953125 C-2.89417119 15.8931617 -5.06791184 17.43240047 -8 19 C-8 17.68 -8 16.36 -8 15 C-7.236875 14.773125 -6.47375 14.54625 -5.6875 14.3125 C-2.45263699 12.73268318 -1.58358642 11.16717283 0 8 C-0.99 7.67 -1.98 7.34 -3 7 C-3 3 -3 3 -1.5 1.25 C-1.005 0.8375 -0.51 0.425 0 0 Z " fill="#ED993A" transform="translate(306,209)"/>
<path d="M0 0 C0.66 0.33 1.32 0.66 2 1 C2.33 1.99 2.66 2.98 3 4 C5.10621183 4.73438093 5.10621183 4.73438093 7.625 5.1875 C13.553876 6.77817405 16.66745783 9.94513481 20 15 C20.92867074 17.78601223 21.16342217 19.61066089 21.1875 22.5 C21.20167969 23.2734375 21.21585938 24.046875 21.23046875 24.84375 C21 27 21 27 19 30 C19.0825 28.865625 19.165 27.73125 19.25 26.5625 C19.28196924 22.07881471 17.86261171 18.84423305 15.875 14.8828125 C15 13 15 13 15 11 C14.01 10.67 13.02 10.34 12 10 C12 9.34 12 8.68 12 8 C9.07610785 7.37978045 6.2238705 6.90945156 3.25 6.5625 C1.64125 6.2840625 1.64125 6.2840625 0 6 C-1.24546405 3.50907189 -0.7767578 2.58919267 0 0 Z " fill="#2C4F77" transform="translate(227,177)"/>
<path d="M0 0 C-0.33 1.65 -0.66 3.3 -1 5 C-2.32 4.67 -3.64 4.34 -5 4 C-7.74277578 7.19990508 -9.6302836 10.00499382 -11 14 C-12.32 13.67 -13.64 13.34 -15 13 C-14.625 11.0625 -14.625 11.0625 -14 9 C-13.34 8.67 -12.68 8.34 -12 8 C-10.9935725 6.33720673 -9.99414593 4.67016516 -9 3 C-6.19774926 -0.26929254 -4.31896312 -1.43965437 0 0 Z " fill="#EF9A3A" transform="translate(265,264)"/>
<path d="M0 0 C0.33 0.66 0.66 1.32 1 2 C18.16 2 35.32 2 53 2 C53 2.33 53 2.66 53 3 C35.18 3.33 17.36 3.66 -1 4 C-1 1 -1 1 0 0 Z " fill="#1A4B84" transform="translate(236,298)"/>
<path d="M0 0 C0.66 1.32 1.32 2.64 2 4 C0.35 4.33 -1.3 4.66 -3 5 C-3.33 6.32 -3.66 7.64 -4 9 C-4.66 9 -5.32 9 -6 9 C-6.185625 9.86625 -6.37125 10.7325 -6.5625 11.625 C-8.36632114 15.86005834 -10.98041069 18.69925512 -15 21 C-15.99 20.67 -16.98 20.34 -18 20 C-17 18 -17 18 -14.8125 16.9375 C-11.33386268 14.5411054 -9.78293808 11.83271586 -7.55859375 8.296875 C-5.38140163 5.08838135 -2.83555543 2.63301576 0 0 Z " fill="#DC9A4E" transform="translate(300,216)"/>
<path d="M0 0 C1.98 0 3.96 0 6 0 C6 1.98 6 3.96 6 6 C1.38034912 6.95946595 -2.68129125 6.96102244 -7.375 6.5625 C-8.62023437 6.46066406 -9.86546875 6.35882813 -11.1484375 6.25390625 C-12.55996094 6.12822266 -12.55996094 6.12822266 -14 6 C-14 5.67 -14 5.34 -14 5 C-7.07 4.01 -7.07 4.01 0 3 C0 2.01 0 1.02 0 0 Z " fill="#21518A" transform="translate(304,295)"/>
<path d="M0 0 C7.26 0 14.52 0 22 0 C21.34 1.32 20.68 2.64 20 4 C19.01 4 18.02 4 17 4 C16.67 4.99 16.34 5.98 16 7 C12.37 7 8.74 7 5 7 C5 6.67 5 6.34 5 6 C7.31 6 9.62 6 12 6 C12 5.34 12 4.68 12 4 C12.99 3.34 13.98 2.68 15 2 C10.05 1.67 5.1 1.34 0 1 C0 0.67 0 0.34 0 0 Z " fill="#275485" transform="translate(226,272)"/>
<path d="M0 0 C0.66 0.33 1.32 0.66 2 1 C2 3 2 3 0.25 4.8125 C-0.4925 5.534375 -1.235 6.25625 -2 7 C-3.0209375 8.36125 -3.0209375 8.36125 -4.0625 9.75 C-5.0215625 10.86375 -5.0215625 10.86375 -6 12 C-6.99 12 -7.98 12 -9 12 C-7.88744102 7.17891107 -6.94630932 4.1092134 -3 1 C-2.01 0.67 -1.02 0.34 0 0 Z " fill="#F59830" transform="translate(282,240)"/>
<path d="M0 0 C-0.33 1.65 -0.66 3.3 -1 5 C-2.32 5 -3.64 5 -5 5 C-5.33 5.99 -5.66 6.98 -6 8 C-8 11 -8 11 -10.125 11.6875 C-10.74375 11.790625 -11.3625 11.89375 -12 12 C-12 10.68 -12 9.36 -12 8 C-11.34 8 -10.68 8 -10 8 C-9.7525 7.4225 -9.505 6.845 -9.25 6.25 C-6.7671793 1.78092274 -5.23421741 0 0 0 Z " fill="#F5992E" transform="translate(225,307)"/>
<path d="M0 0 C1.32 0.33 2.64 0.66 4 1 C3.01 1 2.02 1 1 1 C1.33 2.65 1.66 4.3 2 6 C7.73842251 6.20413361 12.60539047 6.27141454 18 4 C18 2.68 18 1.36 18 0 C19.32 0 20.64 0 22 0 C20.64048476 4.44932259 18.93173344 6.51257681 15 9 C11.484375 9.20703125 11.484375 9.20703125 7.75 8.8125 C6.50734375 8.69519531 5.2646875 8.57789063 3.984375 8.45703125 C1 8 1 8 0 7 C-0.04092937 4.66702567 -0.04241723 2.33294775 0 0 Z " fill="#2D4E70" transform="translate(208,294)"/>
<path d="M0 0 C1.65 0 3.3 0 5 0 C5.33 1.32 5.66 2.64 6 4 C4.8803014 5.00593243 3.7540588 6.0045849 2.625 7 C1.99851563 7.556875 1.37203125 8.11375 0.7265625 8.6875 C-1 10 -1 10 -3 10 C-3.33 9.01 -3.66 8.02 -4 7 C-3.34 6.401875 -2.68 5.80375 -2 5.1875 C0.3373846 3.12498166 0.3373846 3.12498166 0 0 Z " fill="#F39C2F" transform="translate(237,286)"/>
<path d="M0 0 C1.42944945 2.35438733 2.08661261 3.48032433 1.625 6.25 C1.41875 6.8275 1.2125 7.405 1 8 C0.2575 8.103125 -0.485 8.20625 -1.25 8.3125 C-4.17014018 9.04253504 -5.73187554 10.06789398 -8 12 C-8.66 11.67 -9.32 11.34 -10 11 C-8.73046875 9.53515625 -7.4609375 8.0703125 -6.19140625 6.60546875 C-4.79128769 4.89287029 -4.79128769 4.89287029 -4 2 C-1.9375 0.8125 -1.9375 0.8125 0 0 Z " fill="#EC9535" transform="translate(212,315)"/>
<path d="M0 0 C2.31 0 4.62 0 7 0 C5.4705003 3.44137432 3.54630448 6.2222133 1 9 C0.01 9 -0.98 9 -2 9 C-2 8.34 -2 7.68 -2 7 C-5.63 7 -9.26 7 -13 7 C-13 6.67 -13 6.34 -13 6 C-12.26394531 5.93941406 -11.52789062 5.87882813 -10.76953125 5.81640625 C-9.79371094 5.73261719 -8.81789063 5.64882812 -7.8125 5.5625 C-6.84957031 5.48128906 -5.88664062 5.40007812 -4.89453125 5.31640625 C-2.21350398 5.02333849 0.3662986 4.57296246 3 4 C3 3.01 3 2.02 3 1 C2.01 0.67 1.02 0.34 0 0 Z " fill="#555864" transform="translate(285,225)"/>
<path d="M0 0 C0.33 0.66 0.66 1.32 1 2 C0.0625 4.625 0.0625 4.625 -1 7 C0.98 6.01 2.96 5.02 5 4 C3.34832443 7.5786304 1.21713508 10.74820188 -1 14 C-2 11 -2 11 -2 9 C-3.65 9.33 -5.3 9.66 -7 10 C-6.401875 9.278125 -5.80375 8.55625 -5.1875 7.8125 C-3.22577804 5.29028605 -1.58276017 2.7698303 0 0 Z " fill="#CC9451" transform="translate(274,245)"/>
<path d="M0 0 C0.90105469 0.02707031 1.80210937 0.05414063 2.73046875 0.08203125 C3.76107422 0.13423828 3.76107422 0.13423828 4.8125 0.1875 C4.8125 2.4975 4.8125 4.8075 4.8125 7.1875 C-0.1375 7.1875 -5.0875 7.1875 -10.1875 7.1875 C-7.42822995 1.6689599 -6.29695814 -0.24533603 0 0 Z M-7.1875 4.1875 C-7.1875 4.8475 -7.1875 5.5075 -7.1875 6.1875 C-3.5575 6.1875 0.0725 6.1875 3.8125 6.1875 C3.8125 4.5375 3.8125 2.8875 3.8125 1.1875 C-0.81359198 0.8647494 -3.46776121 1.34299386 -7.1875 4.1875 Z " fill="#415264" transform="translate(306.1875,224.8125)"/>
<path d="M0 0 C3.3 0.33 6.6 0.66 10 1 C9.67 1.99 9.34 2.98 9 4 C3.375 5.125 3.375 5.125 0 4 C0 2.68 0 1.36 0 0 Z " fill="#205B9A" transform="translate(211,295)"/>
<path d="M0 0 C0.66 0.33 1.32 0.66 2 1 C1.67 2.32 1.34 3.64 1 5 C2.44632812 4.85691406 2.44632812 4.85691406 3.921875 4.7109375 C5.81679688 4.54464844 5.81679688 4.54464844 7.75 4.375 C9.62945312 4.20097656 9.62945312 4.20097656 11.546875 4.0234375 C15 4 15 4 19 6 C8.11 6.495 8.11 6.495 -3 7 C-2 2 -2 2 0 0 Z " fill="#334D68" transform="translate(259,272)"/>
<path d="M0 0 C2.31 0 4.62 0 7 0 C7.38063221 2.3260857 7.71269945 4.66055264 8 7 C7 8 7 8 4.71484375 8.09765625 C3.34005859 8.08025391 3.34005859 8.08025391 1.9375 8.0625 C1.01839844 8.05347656 0.09929687 8.04445312 -0.84765625 8.03515625 C-1.55792969 8.02355469 -2.26820313 8.01195312 -3 8 C-2.67 7.01 -2.34 6.02 -2 5 C0.31 5 2.62 5 5 5 C5.33 4.01 5.66 3.02 6 2 C3.03 1.505 3.03 1.505 0 1 C0 0.67 0 0.34 0 0 Z " fill="#3A5775" transform="translate(304,199)"/>
<path d="M0 0 C0.33 0 0.66 0 1 0 C1 2.31 1 4.62 1 7 C5.29 7 9.58 7 14 7 C14 7.66 14 8.32 14 9 C12.06494977 9.24900646 10.12674066 9.47356242 8.1875 9.6875 C7.10855469 9.81511719 6.02960938 9.94273437 4.91796875 10.07421875 C2 10 2 10 0.09375 8.75 C-1.71948898 5.84881764 -0.66522691 3.20518419 0 0 Z " fill="#175474" transform="translate(194,339)"/>
<path d="M0 0 C1.32 0.33 2.64 0.66 4 1 C2.97895872 3.46751643 2.2325011 4.82749919 0.0625 6.4375 C-2.40241267 8.30485808 -3.46367145 10.34634159 -5 13 C-5.99 13.495 -5.99 13.495 -7 14 C-6.71125 13.484375 -6.4225 12.96875 -6.125 12.4375 C-4.71219973 9.37643275 -3.8751483 6.25055082 -3 3 C-2.01 3 -1.02 3 0 3 C0 2.01 0 1.02 0 0 Z " fill="#C98E4C" transform="translate(259,267)"/>
<path d="M0 0 C1 2 1 2 2 5 C3.32 4.67 4.64 4.34 6 4 C5.34 5.32 4.68 6.64 4 8 C0 8 0 8 -1.75 6.5 C-2.1625 6.005 -2.575 5.51 -3 5 C-1.125 1.125 -1.125 1.125 0 0 Z " fill="#D4974C" transform="translate(201,327)"/>
<path d="M0 0 C0.66 0 1.32 0 2 0 C0.53482892 3.17695511 -1.24916309 5.84934394 -3.375 8.625 C-3.96023437 9.40101563 -4.54546875 10.17703125 -5.1484375 10.9765625 C-7.00525132 13.00573879 -8.47738645 13.96650634 -11 15 C-7.60602684 9.7515879 -4.24749959 4.60145788 0 0 Z " fill="#D09255" transform="translate(236,287)"/>
<path d="M0 0 C-1.32 0.33 -2.64 0.66 -4 1 C-4 1.66 -4 2.32 -4 3 C-0.04 3 3.92 3 8 3 C8 3.33 8 3.66 8 4 C2.39 4 -3.22 4 -9 4 C-9 3.34 -9 2.68 -9 2 C-5.5647952 -0.29013653 -4.014669 -0.17842973 0 0 Z " fill="#26558C" transform="translate(246,296)"/>
<path d="M0 0 C1.66611905 -0.042721 3.33382885 -0.04063832 5 0 C6 1 6 1 6.11352539 2.76586914 C6.10828857 3.51473389 6.10305176 4.26359863 6.09765625 5.03515625 C6.09282227 6.24848633 6.09282227 6.24848633 6.08789062 7.48632812 C6.07951172 8.33646484 6.07113281 9.18660156 6.0625 10.0625 C6.05798828 10.91650391 6.05347656 11.77050781 6.04882812 12.65039062 C6.03700373 14.76695663 6.01906769 16.88348685 6 19 C5.67 19 5.34 19 5 19 C4.67 13.06 4.34 7.12 4 1 C1.525 2.485 1.525 2.485 -1 4 C-0.67 2.68 -0.34 1.36 0 0 Z " fill="#244D77" transform="translate(188,221)"/>
<path d="M0 0 C0.33 0.66 0.66 1.32 1 2 C7.27 2 13.54 2 20 2 C20 2.33 20 2.66 20 3 C9.605 3.495 9.605 3.495 -1 4 C-1 1 -1 1 0 0 Z " fill="#2F4D63" transform="translate(236,298)"/>
<path d="M0 0 C0.66 1.32 1.32 2.64 2 4 C0.35 4.33 -1.3 4.66 -3 5 C-3.33 6.32 -3.66 7.64 -4 9 C-5.32 9.33 -6.64 9.66 -8 10 C-6.34908222 5.70761377 -3.26245434 3.1206085 0 0 Z " fill="#DE883E" transform="translate(300,216)"/>
<path d="M0 0 C4.62 0 9.24 0 14 0 C14.33 1.32 14.66 2.64 15 4 C14.67 3.34 14.34 2.68 14 2 C13.360625 2.20625 12.72125 2.4125 12.0625 2.625 C7.78747342 3.14847264 4.12654053 2.08782441 0 1 C0 0.67 0 0.34 0 0 Z " fill="#315987" transform="translate(212,294)"/>
<path d="M0 0 C4.875 2.625 4.875 2.625 6 6 C5.01 6.66 4.02 7.32 3 8 C2.67 6.35 2.34 4.7 2 3 C0.02 3.99 -1.96 4.98 -4 6 C-2.84826645 3.53199953 -1.95216435 1.95216435 0 0 Z " fill="#CC8846" transform="translate(306,209)"/>
<path d="M0 0 C0.33 0 0.66 0 1 0 C1.18451025 11.52164009 1.18451025 11.52164009 0 17 C-0.33 17 -0.66 17 -1 17 C-1.33 12.71 -1.66 8.42 -2 4 C-1.34 4 -0.68 4 0 4 C0 2.68 0 1.36 0 0 Z " fill="#365B84" transform="translate(194,328)"/>
<path d="M0 0 C0.33 0.66 0.66 1.32 1 2 C-0.54442235 5.63393495 -1.48567857 6.78822059 -5.1875 8.3125 C-6.5796875 8.6528125 -6.5796875 8.6528125 -8 9 C-6.4169423 4.7257442 -3.49431596 2.73468206 0 0 Z " fill="#C58F51" transform="translate(250,273)"/>
<path d="M0 0 C0.98120464 3.05263664 0.98120464 4.94736336 0 8 C-0.66 8 -1.32 8 -2 8 C-2.33 8.99 -2.66 9.98 -3 11 C-4.22376937 7.3286919 -3.61664584 6.40346492 -2 3 C-1.34 2.01 -0.68 1.02 0 0 Z " fill="#26558E" transform="translate(246,199)"/>
<path d="M0 0 C0.66 0 1.32 0 2 0 C2.92867074 2.78601223 3.16342217 4.61066089 3.1875 7.5 C3.20167969 8.2734375 3.21585938 9.046875 3.23046875 9.84375 C3 12 3 12 1 15 C1.020625 13.824375 1.04125 12.64875 1.0625 11.4375 C1.06947261 7.52586533 0.64250343 3.85502056 0 0 Z " fill="#24486D" transform="translate(245,192)"/>
<path d="M0 0 C1.65 0 3.3 0 5 0 C3.71480435 2.86697492 2.42870746 4.97607712 0 7 C-0.66 7 -1.32 7 -2 7 C-2.33 7.66 -2.66 8.32 -3 9 C-3.33 8.34 -3.66 7.68 -4 7 C-2.73577236 4.47154472 -1.47154472 4.23577236 1 3 C1.33 2.34 1.66 1.68 2 1 C1.34 0.67 0.68 0.34 0 0 Z " fill="#53585F" transform="translate(246,271)"/>
<path d="M0 0 C0.33 0.66 0.66 1.32 1 2 C0.67 2.99 0.34 3.98 0 5 C0.99 5 1.98 5 3 5 C3 6.65 3 8.3 3 10 C2.01 10 1.02 10 0 10 C-1.125 6.6875 -1.125 6.6875 -2 3 C-1.34 2.01 -0.68 1.02 0 0 Z " fill="#225490" transform="translate(190,152)"/>
<path d="M0 0 C1.32 0.66 2.64 1.32 4 2 C3.06725891 3.12894876 2.12859878 4.25300876 1.1875 5.375 C0.66542969 6.00148438 0.14335937 6.62796875 -0.39453125 7.2734375 C-2 9 -2 9 -5 11 C-4.731875 10.484375 -4.46375 9.96875 -4.1875 9.4375 C-2.67650593 6.33598585 -1.34427274 3.17737194 0 0 Z " fill="#CF924C" transform="translate(231,299)"/>
<path d="M0 0 C1.32 0 2.64 0 4 0 C2.64978174 4.41889613 0.73884332 6.34345343 -3 9 C-3.66 8.34 -4.32 7.68 -5 7 C-4.175 6.5875 -3.35 6.175 -2.5 5.75 C-1.675 5.1725 -0.85 4.595 0 4 C0 2.68 0 1.36 0 0 Z " fill="#5B5A5E" transform="translate(226,294)"/>
<path d="M0 0 C2.31 0 4.62 0 7 0 C7.33 0.99 7.66 1.98 8 3 C5.36 3 2.72 3 0 3 C0 2.01 0 1.02 0 0 Z " fill="#1B5995" transform="translate(301,227)"/>
<path d="M0 0 C0 0.66 0 1.32 0 2 C-0.66 2 -1.32 2 -2 2 C-2 3.65 -2 5.3 -2 7 C-3.65 7 -5.3 7 -7 7 C-3.72340426 0 -3.72340426 0 0 0 Z " fill="#555959" transform="translate(220,318)"/>
<path d="M0 0 C1.65 0 3.3 0 5 0 C4.67 0.99 4.34 1.98 4 3 C0.37 3 -3.26 3 -7 3 C-7 2.67 -7 2.34 -7 2 C-4.69 2 -2.38 2 0 2 C0 1.34 0 0.68 0 0 Z " fill="#286480" transform="translate(238,276)"/>
<path d="M0 0 C0 3 0 3 -1.875 4.9375 C-2.57625 5.618125 -3.2775 6.29875 -4 7 C-5.23512079 9.13309192 -5.23512079 9.13309192 -6 11 C-6.66 11 -7.32 11 -8 11 C-6.52670958 5.99081256 -3.72484762 3.48192278 0 0 Z " fill="#C78B4C" transform="translate(259,262)"/>
<path d="M0 0 C0.99 0.33 1.98 0.66 3 1 C2.67 2.65 2.34 4.3 2 6 C1.01 5.67 0.02 5.34 -1 5 C-1.6875 2.9375 -1.6875 2.9375 -2 1 C-1.34 0.67 -0.68 0.34 0 0 Z " fill="#F4A02E" transform="translate(262,263)"/>
<path d="M0 0 C3.63 0 7.26 0 11 0 C9 4 9 4 7 5 C7 3.68 7 2.36 7 1 C4.69 1 2.38 1 0 1 C0 0.67 0 0.34 0 0 Z " fill="#515860" transform="translate(261,248)"/>
<path d="M0 0 C0.33 0.66 0.66 1.32 1 2 C-1.57784846 4.64752004 -3.91648098 6.94432065 -7 9 C-6.690625 8.401875 -6.38125 7.80375 -6.0625 7.1875 C-4.89790296 4.91043228 -4.89790296 4.91043228 -4 2 C-1.9375 0.8125 -1.9375 0.8125 0 0 Z " fill="#B97F3D" transform="translate(212,315)"/>
<path d="M0 0 C-0.33 0.66 -0.66 1.32 -1 2 C-3.06640625 2.6328125 -3.06640625 2.6328125 -5.5625 3.125 C-6.80193359 3.37636719 -6.80193359 3.37636719 -8.06640625 3.6328125 C-8.70449219 3.75398438 -9.34257812 3.87515625 -10 4 C-9.67 3.01 -9.34 2.02 -9 1 C-6.04335481 -0.4783226 -3.25770263 -0.06032783 0 0 Z " fill="#52616B" transform="translate(247,294)"/>
<path d="M0 0 C1.32 0.33 2.64 0.66 4 1 C0.535 3.97 0.535 3.97 -3 7 C-3 3 -3 3 -1.75 1.1875 C-1.1725 0.795625 -0.595 0.40375 0 0 Z " fill="#E29446" transform="translate(268,259)"/>
<path d="M0 0 C-0.125 1.8125 -0.125 1.8125 -1 4 C-4.0625 5.75 -4.0625 5.75 -7 7 C-3.86206897 0 -3.86206897 0 0 0 Z " fill="#C78745" transform="translate(267,255)"/>
<path d="M0 0 C1.32 0.33 2.64 0.66 4 1 C1.03 3.475 1.03 3.475 -2 6 C-2 3 -2 3 0 0 Z " fill="#D3924C" transform="translate(282,243)"/>
<path d="M0 0 C0.66 0.33 1.32 0.66 2 1 C-0.64 2.98 -3.28 4.96 -6 7 C-6 5.68 -6 4.36 -6 3 C-5.195625 2.690625 -4.39125 2.38125 -3.5625 2.0625 C-1.10919595 1.23664655 -1.10919595 1.23664655 0 0 Z " fill="#C69056" transform="translate(304,221)"/>
<path d="M0 0 C0.99 1.32 1.98 2.64 3 4 C1.02 4.33 -0.96 4.66 -3 5 C-1.125 1.125 -1.125 1.125 0 0 Z " fill="#225D99" transform="translate(191,172)"/>
</svg>
